<svg xmlns="http://www.w3.org/2000/svg" id="Layer_1" width="1000" height="1200" version="1.1" viewBox="0 0 1000 1200"><defs id="defs4"><style>.cls-1,.cls-40{fill:#fff}.cls-3,.cls-35,.cls-36,.cls-37,.cls-38,.cls-39,.cls-40,.cls-42{stroke:#000}.cls-3,.cls-35,.cls-36,.cls-37,.cls-39,.cls-40,.cls-42,.cls-5{stroke-miterlimit:10}.cls-37{stroke-width:2px}.cls-3,.cls-36,.cls-38,.cls-9{fill:#efcf3e}.cls-3{stroke-width:4px}.cls-39,.cls-5{fill:none}.cls-5{stroke:#fff;stroke-width:6.86px}.cls-42,.cls-8{fill:#264355}.cls-10{fill:#285d4b}.cls-35,.cls-37{fill:#a54138}.cls-35,.cls-38,.cls-42{stroke-width:1.5px}.cls-36,.cls-39{stroke-width:3px}.cls-38{stroke-linecap:round;stroke-linejoin:round}</style></defs><g id="g298" style="stroke-width:.9100132" transform="matrix(1.09891 0 0 1.09886 -159.347 -60)"><path id="path8" d="M883.9 335.1c-5.3-17.6-11.4-23.7-27.1-33.3-14-8.5-39.6-10.7-43.3-11 .5-3.7 3.3-29.1-9.9-44.9-12-14.2-25.5-21.4-40.3-21.4a52.1 52.1 0 0 0-19.1 3.9l-1.5.5c-5.2 1.7-12.3 7.8-13.3 8.7-9.6.3-17.7 3-24.2 7.8-.8.6-1.6 1.3-2.3 1.9 2.3-6.9 4.4-16.6.5-26l-.1-.3c-8.4-20-20-32.4-32.4-45.7-9.6-10.3-19.6-20.9-36-31.8-2-1.4-4-2.7-6.3-4a171.3 171.3 0 0 0-27.9-13.6l-.1-.1-.2.1a171 171 0 0 0-28.8 14.2c-1.7 1-3.5 2.2-5.4 3.4-16.4 10.8-26.4 21.5-36.1 31.8-12.4 13.2-24 25.6-32.4 45.6 0 .1-.1.1-.1.2-3.9 9.5-1.8 19.3.5 26.3a30 30 0 0 0-2.6-2.1c-6.4-4.8-14.6-7.5-24.2-7.8-1-.9-8.1-7-13.3-8.7l-1.5-.5a52.1 52.1 0 0 0-19.1-3.9c-14.8 0-28.3 7.2-40.3 21.4-13.3 15.8-10.4 41.2-9.9 44.9-3.7.3-29.3 2.5-43.3 11-15.7 9.5-21.8 15.7-27.1 33.3a71 71 0 0 0-3 19.9 40.3 40.3 0 0 0 1 9.8 15.1 15.1 0 0 0 3.1 5.7 5.94 5.94 0 0 1 1.4 2.3c.5 4 2 30.1 2.4 38v.4h557.1v-.4c.4-7.9 1.9-34 2.4-38a5 5 0 0 1 1.4-2.3 13.8 13.8 0 0 0 3.1-5.7 40.3 40.3 0 0 0 1-9.8 66.3 66.3 0 0 0-2.8-19.8zM388 363.4c.7-1.4 1-4-1.3-8.1-1.6-2.8-2.2-4.3-3.6-9-1.2-3.7-1.7-5.5-1.2-6.9 1.8-4.5 11.4-5.5 18.3-3.8a21.2 21.2 0 0 1 10.2 6 18.5 18.5 0 0 1 4.1 7.2c-9 4.6-17.8 9.4-26.5 14.6zm70.4-75.5c-4.1 7.1-19.7 16.7-19.7 16.7s1.5-18.5 4.8-25.6a35.88 35.88 0 0 1 18.1-17.5s1.4 18.6-3.2 26.4zm283.8 0c-4.6-7.9-3.2-26.4-3.2-26.4a36.07 36.07 0 0 1 18.2 17.5c3.3 7.1 4.8 25.6 4.8 25.6s-15.6-9.6-19.8-16.7zm75.4 58.4c-1.5 4.7-2 6.1-3.6 9-2.7 4.8-1.9 7.4-1 8.7-8.8-5.3-17.7-10.3-26.9-14.9a18 18 0 0 1 4.2-7.5 21.67 21.67 0 0 1 10.2-6c6.9-1.8 16.5-.8 18.3 3.8.5 1.4-.1 3.2-1.2 6.9z" style="fill:#fff;stroke:#000;stroke-width:1.8200264px;stroke-miterlimit:10"/><path id="path10" d="M600.4 126.4a179.4 179.4 0 0 1 27.9 13.5c2.1 1.2 4.1 2.6 6.3 4 16.4 10.9 26.4 21.5 36 31.8 12.9 13.7 24.2 26 32.3 45.5a.3.3 0 0 1 .1.2c3.9 9.4 1.9 19.2-1 27.4a34 34 0 0 1 3.5-3.1c8.2-6.2 17.6-7.5 24.1-7.7 0 0 7.8-6.9 13.3-8.7 2.6-.9 10.2-4.4 20.4-4.4 11.3 0 25.7 4.3 40 21.3s9.8 45 9.8 45 28.4 1.8 43.6 11 21.6 15.1 26.9 33a73.6 73.6 0 0 1 3 19.8 39.5 39.5 0 0 1-1 9.7c-1.1 4.5-4.3 6.2-4.5 8.1-.5 4-1.9 28.8-2.4 38.1H322.2c-.5-9.3-1.9-34.1-2.4-38.1-.2-1.9-3.4-3.6-4.5-8.1a40 40 0 0 1-1-9.7 73.6 73.6 0 0 1 3-19.8c5.4-17.9 11.8-23.9 26.9-33s43.6-11 43.6-11-4.5-28 9.8-45 28.7-21.3 40-21.3c10.2 0 17.8 3.5 20.4 4.4 5.5 1.8 13.3 8.7 13.3 8.7 6.5.2 15.9 1.6 24.1 7.7a24.4 24.4 0 0 1 3.8 3.4c-2.9-8.2-5-18.2-1.1-27.7a.3.3 0 0 1 .1-.2c8.1-19.6 19.4-31.8 32.3-45.6 9.6-10.3 19.6-20.9 36-31.8 1.8-1.2 3.6-2.3 5.4-3.4a167.5 167.5 0 0 1 28.5-14m0-.9-.3.1a176 176 0 0 0-28.9 14.2c-1.7 1-3.5 2.2-5.4 3.4-16.4 10.9-26.4 21.6-36.1 31.9-12.4 13.2-24.1 25.7-32.5 45.8a.37.37 0 0 0-.1.3c-3.7 9-2.1 18.2.1 25.1l-1.5-1.2c-6.5-4.9-14.6-7.5-24.3-7.9-1.4-1.2-8.2-7-13.4-8.7a12 12 0 0 1-1.4-.5 52.7 52.7 0 0 0-19.2-3.9c-14.9 0-28.6 7.3-40.6 21.6-13.1 15.6-10.7 39.8-10.1 44.8-5 .4-29.3 2.7-43.1 11.1-15.8 9.6-22 15.8-27.3 33.5a71.2 71.2 0 0 0-3 20 41.2 41.2 0 0 0 1.1 9.9 14.8 14.8 0 0 0 3.2 5.9 5.7 5.7 0 0 1 1.3 2.1c.5 4 2 30.1 2.4 38v.8h557.9v-.8c.4-7.9 1.9-34 2.4-38a5.7 5.7 0 0 1 1.3-2.1 14.8 14.8 0 0 0 3.2-5.9 41.7 41.7 0 0 0 1.1-9.9 71.2 71.2 0 0 0-3-20c-5.3-17.7-11.5-23.9-27.3-33.5-13.8-8.4-38-10.7-43.1-11.1.7-5 3-29.2-10.1-44.8-12.1-14.3-25.7-21.6-40.6-21.6a52.7 52.7 0 0 0-19.2 3.9c-.6.2-1.1.4-1.4.5-5.1 1.7-12 7.5-13.4 8.7-9.6.4-17.8 3-24.3 7.9-.4.3-.8.7-1.2 1 2.1-6.9 3.7-16 0-24.9l-.1-.3c-8.4-20-20.1-32.5-32.5-45.8-9.7-10.3-19.7-21-36.1-31.9-2-1.3-4-2.6-6.3-4a172.3 172.3 0 0 0-28-13.6c.1 0-.2-.1-.2-.1" style="stroke-width:.9100132"/><path id="path12" d="M557.7 307.1c-12.1 1.1-24.2 2.8-36.2 5.1-12.3 2.4-23.6 5.2-33.8 8.2a45.2 45.2 0 0 0 10.4-16.8c2.8-8.5 2.4-19.6 2.4-20.6-.7-8.7-6.5-19.6-13.2-26.4-5.6-5.7-23.9-3.6-23.9-3.6a4.68 4.68 0 0 0 .9-2.8c.1-3.4-3.2-5.9-4.7-7.1-7.5-5.8-19.8-5.8-22.5-5.7-5.1.1-15.9.4-26.6 7.4a39.5 39.5 0 0 0-9 7.8c-11.7 13.9-4.6 43.6-4.6 43.8l1.4 8.7s-38.5-5.4-50.9 3.1c-13.8 9.5-17.3 11.1-23.5 25.8-1.6 3.9-4.2 26.5-.1 34.3.2 4.4 1.7 31.1 2 37 0 0 57.1-40.5 57-40.7-2.4-4.3-16.2-24.3-9.2-31.3 6.5-6.4 29.2-1.9 30.4-1.6 3.1.9 34.8 3.1 40.6 3.5a3.1 3.1 0 0 1 .9.1l-30.8 14.1a1.4 1.4 0 0 0-.2-.6 17.8 17.8 0 0 0-4.1-7.2 21.67 21.67 0 0 0-10.2-6c-6.9-1.8-16.5-.8-18.3 3.8-.5 1.4 0 3.3 1.2 6.9 1.5 4.7 2 6.2 3.6 9 2.4 4.2 2 6.7 1.3 8.1a3.2 3.2 0 0 1-1.3 1.5l-27.7 19-32.5 26.9-.6.5-3.7 3s0-.8-.1-2a3.8 3.8 0 0 0-.1-1v-.5c-.5-9.3-1.9-34.1-2.4-38.1-.2-1.9-3.4-3.6-4.5-8.1a40 40 0 0 1-1-9.7 69.9 69.9 0 0 1 3-19.8c5.3-17.9 11.8-23.8 26.9-33s43.6-11 43.6-11-4.5-28 9.8-45c27.2-32.3 54.9-18.7 60.4-16.9s13.3 8.7 13.3 8.7c6.5.2 15.9 1.6 24.1 7.7a24.4 24.4 0 0 1 3.8 3.4c5.9 6.4 7.3 14.5 18.9 32.9l.9 1.5c12.1 18.8 18 21.1 21.2 21.9 5.4 1.5 15.5 1.8 17.7 1.8" style="stroke-width:.9100132"/><path id="path14" d="M562.1 197.5h65.2a55.82 55.82 0 0 1 55.8 55.8v54.3H511.4v-59.4a50.7 50.7 0 0 1 50.7-50.7z" class="cls-3" style="fill:#efcf3e;stroke:#000;stroke-width:3.6400528px;stroke-miterlimit:10"/><path id="path16" d="M1013.2 718.2c0 228.2-185 413.2-413.2 413.2s-413.2-185-413.2-413.2a412 412 0 0 1 135.4-305.9c.4-.3.7-.7 1.1-1a409.5 409.5 0 0 1 64.7-47.8c8.6-5.2 17.5-10 26.5-14.6 9.8-4.9 19.8-9.5 30-13.6a410.4 410.4 0 0 1 113.2-28.1 422 422 0 0 1 42.3-2.1 411.7 411.7 0 0 1 155.4 30.2c10.5 4.2 20.7 8.9 30.7 14 9.2 4.6 18.1 9.6 26.9 14.9a420 420 0 0 1 63.7 47.2c.6.5 1.2 1.1 1.8 1.6a411.5 411.5 0 0 1 134.7 305.2z" style="fill:#fff;stroke:#000;stroke-width:2.4934361px;stroke-miterlimit:10"/><path id="path18" d="M600 1095.2c-208.2 0-377-168.8-377-377s168.8-377 377-377 377 168.8 377 377a376.93 376.93 0 0 1-377 377" style="stroke-width:.9100132"/><path id="path20" d="M600 344.6c206.3 0 373.6 167.2 373.6 373.5s-167.2 373.6-373.5 373.6-373.6-167.1-373.6-373.5A373.51 373.51 0 0 1 600 344.6m0-6.9c-210.1 0-380.4 170.3-380.4 380.4s170.3 380.5 380.4 380.5 380.4-170.4 380.4-380.5A380.34 380.34 0 0 0 600 337.7" class="cls-1" style="fill:#fff;stroke-width:.86837882"/><path id="line22" d="m697.9 357.6-195.8 729.1" class="cls-5" style="fill:none;stroke:#fff;stroke-width:6.24269104px;stroke-miterlimit:10"/><path id="line24" d="M235.4 624.2 964.6 820" class="cls-5" style="fill:none;stroke:#fff;stroke-width:6.24269104px;stroke-miterlimit:10"/><path id="line26" d="M235.4 624.2 964.6 820" class="cls-5" style="fill:none;stroke:#fff;stroke-width:6.24269104px;stroke-miterlimit:10"/><path id="line28" d="m502.1 1086.7 195.8-729.1" class="cls-5" style="fill:none;stroke:#fff;stroke-width:6.24269104px;stroke-miterlimit:10"/><path id="line30" d="m235.3 819.6 729.4-195" class="cls-5" style="fill:none;stroke:#fff;stroke-width:6.24269104px;stroke-miterlimit:10"/><path id="line32" d="m697.5 1086.8-195-729.3" class="cls-5" style="fill:none;stroke:#fff;stroke-width:6.24269104px;stroke-miterlimit:10"/><path id="line34" d="m273 910.7 654-377.1" class="cls-5" style="fill:none;stroke:#fff;stroke-width:6.24269104px;stroke-miterlimit:10"/><path id="line36" d="m788.6 1049.1-377.1-654" class="cls-5" style="fill:none;stroke:#fff;stroke-width:6.24269104px;stroke-miterlimit:10"/><path id="line38" d="m411.1 1048.9 377.8-653.6" class="cls-5" style="fill:none;stroke:#fff;stroke-width:6.24269104px;stroke-miterlimit:10"/><path id="line40" d="M926.8 911 273.2 533.2" class="cls-5" style="fill:none;stroke:#fff;stroke-width:6.24269104px;stroke-miterlimit:10"/><path id="path42" d="M600 1107.8c-215.2 0-389.7-174.4-389.7-389.6s174.4-389.7 389.6-389.7 389.7 174.4 389.7 389.6A389.56 389.56 0 0 1 600 1107.8z" style="fill:none;stroke:#efcf3e;stroke-width:12.48538208px;stroke-miterlimit:10"/><path id="path44" d="M600 1101.8c-211.9 0-383.6-171.7-383.6-383.6S388.1 334.6 600 334.5s383.6 171.8 383.6 383.6A383.76 383.76 0 0 1 600 1101.8z" style="fill:none;stroke:#000;stroke-width:2.4934361px;stroke-miterlimit:10"/><path id="path46" d="M600 920.1c-111.5 0-201.9-90.4-201.9-201.9S488.5 516.3 600 516.3s201.9 90.4 201.9 201.9A201.78 201.78 0 0 1 600 920.1" style="stroke-width:.9100132"/><path id="polygon48" d="m401.7 647.4-204.2 70.8h204.2z" class="cls-8" style="fill:#264355;stroke-width:.86837882"/><path id="polygon50" d="m401.7 789-204.2-70.8h204.2z" class="cls-9" style="fill:#efcf3e;stroke-width:.86837882"/><path id="polygon52" d="m798.3 789 204.2-70.8H798.3z" class="cls-8" style="fill:#264355;stroke-width:.86837882"/><path id="polygon54" d="m798.3 647.4 204.2 70.8H798.3z" class="cls-9" style="fill:#efcf3e;stroke-width:.86837882"/><path id="polygon56" d="m409.8 808.4-94.4 194.4 144.4-144.4z" class="cls-8" style="fill:#264355;stroke-width:.86837882"/><path id="polygon58" d="m509.8 908.5-194.4 94.3 144.4-144.4z" class="cls-9" style="fill:#efcf3e;stroke-width:.86837882"/><path id="polygon60" d="m790.3 628 94.3-194.4L740.2 578z" class="cls-8" style="fill:#264355;stroke-width:.86837882"/><path id="polygon62" d="m690.2 527.9 194.4-94.3L740.2 578z" class="cls-9" style="fill:#efcf3e;stroke-width:.86837882"/><path id="polygon64" d="m509.8 527.9-194.4-94.3L459.8 578z" class="cls-8" style="fill:#264355;stroke-width:.86837882"/><path id="polygon66" d="m409.8 628-94.4-194.4L459.8 578z" class="cls-9" style="fill:#efcf3e;stroke-width:.86837882"/><path id="polygon68" d="m690.2 908.5 194.4 94.3-144.4-144.4z" class="cls-8" style="fill:#264355;stroke-width:.86837882"/><path id="polygon70" d="m790.3 808.4 94.3 194.4-144.4-144.4z" class="cls-9" style="fill:#efcf3e;stroke-width:.86837882"/><path id="polygon72" d="m529.2 916.5 70.8 204.2V916.5z" class="cls-8" style="fill:#264355;stroke-width:.86837882"/><path id="polygon74" d="M670.8 916.5 600 1120.7V916.5z" class="cls-9" style="fill:#efcf3e;stroke-width:.86837882"/><path id="polygon76" d="M670.8 519.9 600 315.7v204.2z" class="cls-8" style="fill:#264355;stroke-width:.86837882"/><path id="polygon78" d="M529.2 519.9 600 315.7v204.2z" class="cls-9" style="fill:#efcf3e;stroke-width:.86837882"/><path id="polygon80" d="M439.8 724.2 315.4 831.9l144.4-57.7z" class="cls-10" style="fill:#285d4b;stroke-width:.86837882"/><path id="polygon82" d="m760.2 712.2 124.4-107.7-144.4 57.7z" class="cls-10" style="fill:#285d4b;stroke-width:.86837882"/><path id="polygon84" d="m606 878.4 107.7 124.4L656 858.4z" class="cls-10" style="fill:#285d4b;stroke-width:.86837882"/><path id="polygon86" d="M594 558 486.3 433.6 544 578z" class="cls-10" style="fill:#285d4b;stroke-width:.86837882"/><path id="polygon88" d="m490.9 835.7-11.7 164.2L540.5 857z" class="cls-10" style="fill:#285d4b;stroke-width:.86837882"/><path id="polygon90" d="m709.1 600.7 11.8-164.2-61.4 142.9z" class="cls-10" style="fill:#285d4b;stroke-width:.86837882"/><path id="polygon92" d="m482.5 609.1-164.2-11.7 143 61.3z" class="cls-10" style="fill:#285d4b;stroke-width:.86837882"/><path id="polygon94" d="M717.5 827.3 881.7 839l-142.9-61.3z" class="cls-10" style="fill:#285d4b;stroke-width:.86837882"/><path id="polygon96" d="m479.8 824.3-164.4 7.6 144.4-57.7z" class="cls-9" style="fill:#efcf3e;stroke-width:.86837882"/><path id="polygon98" d="m720.2 612.1 164.4-7.6-144.4 57.7z" class="cls-9" style="fill:#efcf3e;stroke-width:.86837882"/><path id="polygon100" d="m706.1 838.4 7.6 164.4L656 858.4z" class="cls-9" style="fill:#efcf3e;stroke-width:.86837882"/><path id="polygon102" d="m493.9 598-7.6-164.4L544 578z" class="cls-9" style="fill:#efcf3e;stroke-width:.86837882"/><path id="polygon104" d="M590 878.2 479.2 999.9 540.5 857z" class="cls-9" style="fill:#efcf3e;stroke-width:.86837882"/><path id="polygon106" d="m610 558.2 110.9-121.7-61.4 142.9z" class="cls-9" style="fill:#efcf3e;stroke-width:.86837882"/><path id="polygon108" d="M440 708.2 318.3 597.4l143 61.3z" class="cls-9" style="fill:#efcf3e;stroke-width:.86837882"/><path id="polygon110" d="M760 728.2 881.7 839l-142.9-61.3z" class="cls-9" style="fill:#efcf3e;stroke-width:.86837882"/><path id="path112" d="M600 920.1c-111.5 0-201.9-90.4-201.9-201.9S488.5 516.3 600 516.3s201.9 90.4 201.9 201.9A201.78 201.78 0 0 1 600 920.1z" style="stroke:#fff;stroke-width:3.74925423px;stroke-miterlimit:10"/><g id="g529" style="stroke-width:.9100132"><path id="path470" d="m465.226 634.153-2.825 5.65-8.25-1.318-5.136 10.272 6.066 5.682-2.761 5.521-26.362-25.704 2.75-5.499zm-17.195 3.358-13.407-2.29 9.897 9.309z" style="font-size:49px;font-family:ArialNarrow,Arial;letter-spacing:-.04em;fill:#efcf3e;stroke-width:.9100132"/><path id="path467" d="m464.9 635.165-28.437-20.532 3.306-4.578 25.881 4.168-18.99-13.712 3.165-4.384 28.437 20.533-3.417 4.733-25.323-4.001 18.544 13.39z" style="font-size:49px;font-family:ArialNarrow,Arial;fill:#efcf3e;stroke-width:.9100132"/><path id="path464" d="m481.44 594.945-4.11-4.246 8.989-8.705 9.72 10.038q.19 2.913-1.187 6.478t-3.886 5.995q-3.06 2.963-6.845 3.731-3.803.751-8.074-.908-4.27-1.693-8.198-5.749-4.028-4.16-5.516-8.447-1.47-4.305-.685-7.896.802-3.608 3.879-6.587 3.695-3.579 7.743-3.835 4.049-.29 8.213 2.737l-3.21 4.94q-2.344-1.493-4.58-1.326t-3.955 1.832q-2.665 2.58-2.3 6.257.347 3.66 4.458 7.906 4.41 4.555 8.495 5.196 3.51.564 6.123-1.966 1.22-1.182 1.977-3.014.758-1.866.824-3.862l-3.096-3.197z" style="font-size:49px;font-family:ArialNarrow,Arial;fill:#efcf3e;stroke-width:.9100132"/><path id="path461" d="m502.434 593.484-20.018-28.451 4.735-3.332 16.618 23.618 11.819-8.316 3.4 4.834z" style="font-size:49px;font-family:ArialNarrow,Arial;letter-spacing:-.03em;fill:#efcf3e;stroke-width:.9100132"/><path id="path458" d="M519.442 582.07 502.1 551.58l5.033-2.863 17.34 30.49z" style="font-size:49px;font-family:ArialNarrow,Arial;fill:#efcf3e;stroke-width:.9100132"/><path id="path455" d="m539.598 558.006 6.026-.187q1.082 5.933-.675 9.639-1.766 3.683-5.887 5.427-5.178 2.192-10.082-.435-5.651-3.038-8.962-10.86-3.497-8.263-1.75-14.51 1.523-5.425 6.987-7.738 4.451-1.883 8.735-.111 3.05 1.255 5.842 5.088l-4.635 3.78q-1.617-2.408-3.724-3.152-2.096-.776-4.145.091-2.93 1.24-3.7 4.58-.768 3.339 1.722 9.222 2.583 6.103 5.48 7.916t5.785.592q2.115-.895 2.967-3.179.843-2.305.016-6.163" style="font-size:49px;font-family:ArialNarrow,Arial;fill:#efcf3e;stroke-width:.9100132"/><path id="path452" d="m577.809 560.943-6.127 1.453-4.27-7.15-11.14 2.641-.464 8.273-5.988 1.42 2.794-36.598 5.965-1.415zm-13.566-11-6.823-11.718-.789 13.523z" style="font-size:49px;font-family:ArialNarrow,Arial;letter-spacing:-.04em;fill:#efcf3e;stroke-width:.90718782"/><path id="path449" d="m576.88 561.32-2.455-35.075 5.647-.395 13.411 22.6-1.64-23.424 5.408-.378 2.455 35.075-5.838.409-13.181-22.063 1.601 22.873z" style="font-size:49px;font-family:ArialNarrow,Arial;fill:#efcf3e;stroke-width:.91224003"/><path id="path446" d="m644.21 552.805 5.008 3.356q-2.574 5.455-6.16 7.445-3.58 1.966-7.946.986-5.486-1.232-7.945-6.223-2.826-5.76-.964-14.047 1.966-8.754 7.023-12.817 4.397-3.525 10.186-2.224 4.715 1.06 7.167 4.994 1.75 2.796 1.789 7.537l-5.97.376q.087-2.898-1.193-4.731-1.252-1.85-3.423-2.338-3.105-.698-5.674 1.57t-3.97 8.5q-1.452 6.466-.151 9.628 1.3 3.16 4.359 3.848 2.24.503 4.263-.857 2.027-1.384 3.6-5.003" style="font-size:49px;font-family:ArialNarrow,Arial;fill:#efcf3e;stroke-width:.9100132"/><path id="path443" d="m649.67 567.563 13.389-32.419 5.351 2.21-5.27 12.76 10.527 4.347 5.27-12.76 5.373 2.22-13.388 32.419-5.374-2.22 5.854-14.174-10.526-4.348-5.854 14.176z" style="font-size:49px;font-family:ArialNarrow,Arial;fill:#efcf3e;stroke-width:.9100132"/><path id="path440" d="m693.105 548.455 4.895 3.092-10.142 16.063q-2.364 3.742-2.897 4.99-.915 2.167-.379 4.005.557 1.852 2.56 3.116 1.7 1.073 3.244 1.002 1.558-.092 2.786-1.184 1.26-1.1 4.058-5.53l10.36-16.407 4.915 3.104-9.836 15.577q-3.768 5.968-6.102 8.23-2.3 2.254-5.593 2.495-3.26.233-6.922-2.079-3.803-2.401-5.092-5.11-1.255-2.718-.668-5.8.62-3.088 4.823-9.744z" style="font-size:49px;font-family:ArialNarrow,Arial;fill:#efcf3e;stroke-width:.9100132"/><path id="path437" d="m697.058 592.802 23.5-25.956 9.047 8.192q3.47 3.141 4.317 5.196.862 2.037.247 4.638-.6 2.583-2.78 4.99-2.756 3.046-5.91 3.575-3.134.544-6.258-1.414.483 2.242.312 4.245-.155 1.986-1.354 6.442l-2 7.404-5.117-4.632 1.998-8.47q1.091-4.585 1.179-5.892.103-1.324-.313-2.216-.4-.91-1.888-2.257l-.885-.801-9.81 10.835zm17.846-11.1 3.187 2.886q2.921 2.645 3.942 3.118 1.038.456 2.239.126t2.37-1.623q1.123-1.239 1.3-2.431.194-1.21-.4-2.263-.425-.74-3.31-3.353l-3.365-3.046z" style="font-size:49px;font-family:ArialNarrow,Arial;fill:#efcf3e;stroke-width:.90841931"/><path id="path434" d="m738.37 617.401 1.789 5.736q-5.407 2.622-9.433 1.925-4.008-.713-6.782-4.203-3.486-4.385-2.274-9.795 1.408-6.235 8.033-11.501 6.999-5.563 13.462-5.554 5.614.014 9.293 4.642 2.997 3.77 2.439 8.355-.39 3.264-3.324 6.967l-4.867-3.441q1.88-2.194 2.032-4.417.186-2.218-1.194-3.954-1.973-2.482-5.384-2.329-3.41.154-8.393 4.114-5.17 4.11-6.137 7.375-.967 3.266.976 5.71 1.424 1.792 3.844 2 2.438.195 5.92-1.63" style="font-size:49px;font-family:ArialNarrow,Arial;fill:#efcf3e;stroke-width:.90673125"/><path id="path431" d="m733.393 632.42 30.866-16.836 2.779 5.095-12.149 6.626 5.467 10.022 12.149-6.626 2.79 5.116-30.866 16.836-2.79-5.116 13.495-7.361-5.466-10.023-13.496 7.362z" style="font-size:49px;font-family:ArialNarrow,Arial;fill:#efcf3e;stroke-width:.91219467"/><path id="path389" d="m440.401 791.65 3.311 4.652q-5.438 4.068-2.887 8.727 1.264 2.308 3.184 2.975 1.941.656 3.725-.32 1.05-.575 1.531-1.439.482-.864.427-2.06-.035-1.21-.91-5.449-.795-3.793-.468-5.936t1.7-4.068q1.407-1.915 3.569-3.099 2.518-1.379 5.153-1.348 2.647.05 4.778 1.503 2.132 1.451 3.752 4.41 2.435 4.45 1.39 8.268-1.047 3.819-5.458 6.425l-3.064-4.95q2.292-1.692 2.67-3.345.377-1.652-.749-3.709-1.126-2.056-2.595-2.697-1.47-.642-2.75.06-1.26.689-1.568 2.167-.309 1.479.65 5.672.99 4.45.683 6.827-.275 2.388-1.733 4.359-1.436 1.96-4.206 3.476-4.009 2.194-8.093 1.212-4.072-.962-6.945-6.209-5.078-9.276 4.903-16.104" style="font-size:49px;font-family:ArialNarrow,Arial;fill:#efcf3e;stroke-width:.9100132"/><path id="path392" d="M458.68 812.651q4.889-3.886 9.185-4.956 4.33-1.066 7.732.035 3.404 1.102 6.044 4.424 3.827 4.814 2.554 10.76-1.259 5.964-8.052 11.364-6.867 5.459-13.282 5.32-5.655-.104-9.497-4.937-3.871-4.871-2.734-10.374 1.312-6.28 8.05-11.636m3.894 4.517q-4.721 3.753-5.667 7.429-.928 3.66 1.179 6.31 2.121 2.67 5.848 2.57 3.746-.116 8.598-3.972 4.759-3.783 5.671-7.31.927-3.508-1.269-6.27t-5.87-2.673q-3.675.09-8.49 3.916" style="font-size:49px;font-family:ArialNarrow,Arial;fill:#efcf3e;stroke-width:.90673125"/><path id="path395" d="m491.143 824.359 4.342 3.82-12.538 14.249q-2.92 3.32-3.644 4.466-1.244 1.994-1.005 3.892.258 1.915 2.035 3.478 1.507 1.326 3.042 1.5 1.551.154 2.934-.73 1.417-.886 4.876-4.816l12.806-14.553 4.36 3.837-12.159 13.817q-4.658 5.294-7.317 7.157-2.624 1.861-5.911 1.58-3.253-.284-6.501-3.142-3.373-2.968-4.218-5.845-.81-2.878.255-5.825 1.1-2.95 6.294-8.853z" style="font-size:49px;font-family:ArialNarrow,Arial;fill:#efcf3e;stroke-width:.90914828"/><path id="path398" d="m497.922 874.444 15.445-24.77-7.26-4.528 3.145-5.043 19.422 12.11-3.145 5.043-7.24-4.514-15.445 24.77z" style="font-size:49px;font-family:ArialNarrow,Arial;letter-spacing:-.01em;fill:#efcf3e;stroke-width:.91155893"/><path id="path401" d="m515.75 885.188 13.688-32.294 5.33 2.26-5.387 12.71 10.486 4.445 5.387-12.71 5.353 2.268-13.688 32.294-5.353-2.269 5.985-14.12-10.486-4.444-5.985 14.12z" style="font-size:49px;font-family:ArialNarrow,Arial;fill:#efcf3e;stroke-width:.9100132"/><path id="path404" d="m545.38 897.047 8.306-34.077 20.735 5.054-1.405 5.765-15.11-3.683-1.841 7.554 14.04 3.423-1.4 5.742-14.04-3.423-2.26 9.275 15.62 3.808-1.4 5.741z" style="font-size:49px;font-family:ArialNarrow,Arial;fill:#efcf3e;stroke-width:.9100132"/><path id="path407" d="m574.363 903.456 2.455-35.075 12.226.856q4.69.328 6.632 1.426 1.945 1.073 3.073 3.509 1.13 2.41.902 5.665-.289 4.115-2.45 6.488-2.138 2.375-5.82 2.766 1.772 1.47 2.88 3.16 1.11 1.664 2.928 5.927l3.014 7.087-6.915-.484-3.677-7.927q-1.983-4.299-2.724-5.384-.74-1.11-1.622-1.556-.881-.47-2.89-.612l-1.197-.083-1.025 14.642zm7.207-19.836 4.306.302q3.948.276 5.048.016 1.102-.283 1.846-1.289.743-1.006.866-2.752.117-1.675-.483-2.727-.598-1.076-1.72-1.539-.794-.32-4.694-.593l-4.546-.318z" style="font-size:49px;font-family:ArialNarrow,Arial;fill:#efcf3e;stroke-width:.91224003"/><path id="path410" d="m606.37 905.12-3.156-35.074 5.646-.509 13.88 22.364-2.108-23.423 5.407-.487 3.157 35.076-5.838.525-13.639-21.83 2.059 22.872z" style="font-size:49px;font-family:ArialNarrow,Arial;fill:#efcf3e;stroke-width:.91369128"/><path id="path413" d="m682.375 886.452-5.88 2.304-5.247-6.5-10.692 4.19.701 8.282-5.747 2.252-2.373-36.743 5.725-2.243zm-15.02-9.018-8.425-10.678 1.118 13.541z" style="font-size:49px;font-family:ArialNarrow,Arial;letter-spacing:-.04em;fill:#efcf3e;stroke-width:.9100132"/><path id="path416" d="m685.392 884.502-17.48-30.41 17.093-9.825 2.957 5.145-12.072 6.939 4.137 7.198 10.434-5.998 2.957 5.145-10.434 5.997 7.428 12.923z" style="font-size:49px;font-family:ArialNarrow,Arial;fill:#efcf3e;stroke-width:.9100132"/><path id="path419" d="m708.695 870.426-22.097-27.359 9.536-7.702q3.658-2.954 5.829-3.474 2.155-.538 4.64.476 2.47.997 4.52 3.535 2.593 3.21 2.626 6.42.053 3.196-2.377 5.99 2.3-.13 4.261.352 1.947.463 6.182 2.346l7.036 3.137-5.394 4.356-8.093-3.3q-4.38-1.797-5.663-2.087-1.298-.308-2.248-.034-.965.255-2.533 1.521l-.933.754 9.225 11.421zm-8.235-19.436 3.359-2.713q3.08-2.487 3.708-3.427.614-.958.473-2.201-.14-1.243-1.241-2.606-1.055-1.306-2.21-1.668-1.172-.38-2.308.045-.8.307-3.843 2.764l-3.546 2.864z" style="font-size:49px;font-family:ArialNarrow,Arial;fill:#efcf3e;stroke-width:.91242152"/><path id="path422" d="m731.848 850.357-25.15-24.449 4.036-4.151 25.15 24.448z" style="font-size:49px;font-family:ArialNarrow,Arial;fill:#efcf3e;stroke-width:.9100132"/><path id="path425" d="m742.01 818.589 5.15-3.134q3.868 4.629 4.166 8.719.279 4.075-2.446 7.624-3.424 4.46-8.987 4.593-6.414.142-13.15-5.03-7.117-5.465-8.677-11.761-1.35-5.471 2.264-10.177 2.944-3.834 7.544-4.403 3.273-.413 7.592 1.545l-2.17 5.575q-2.593-1.298-4.794-.907-2.205.358-3.56 2.123-1.938 2.524-.96 5.808.976 3.285 6.043 7.175 5.257 4.037 8.672 4.185 3.415.15 5.324-2.337 1.399-1.821 1.014-4.228-.403-2.421-3.025-5.37" style="font-size:49px;font-family:ArialNarrow,Arial;fill:#efcf3e;stroke-width:.9100132"/><path id="path428" d="m772.022 792.402-2.973 5.573-8.212-1.534-5.406 10.133 5.915 5.84-2.906 5.446-25.676-26.39 2.894-5.424zm-17.278 2.904-13.341-2.643 9.647 9.567z" style="font-size:49px;font-family:ArialNarrow,Arial;letter-spacing:-.04em;fill:#efcf3e;stroke-width:.9100132"/></g><path id="path170" d="M600 1120.7c-222.3 0-402.5-180.2-402.5-402.5S377.7 315.7 600 315.7s402.5 180.2 402.5 402.5A402.54 402.54 0 0 1 600 1120.7z" class="cls-5" style="fill:none;stroke:#fff;stroke-width:6.24269104px;stroke-miterlimit:10"/><path id="path172" d="M600 1120.7c-222.3 0-402.5-180.2-402.5-402.5S377.7 315.7 600 315.7s402.5 180.2 402.5 402.5A402.54 402.54 0 0 1 600 1120.7z" class="cls-5" style="fill:none;stroke:#fff;stroke-width:6.24269104px;stroke-miterlimit:10"/><path id="path174" d="M600 856.5a138.28 138.28 0 1 1 97.8-40.5 138.28 138.28 0 0 1-97.8 40.5z" style="fill:#264355;stroke:#000;stroke-width:3.74925423px;stroke-miterlimit:10"/><path id="path176" d="M600 846.3a.9.9 0 0 1-.5-.1 136.46 136.46 0 0 1-53.6-37.9 151.74 151.74 0 0 1-32.3-62.9v-.3l-.6-117.7a1.37 1.37 0 0 1 1.4-1.4h171.2a1.37 1.37 0 0 1 1.4 1.4l-.6 117.7v.3a153.54 153.54 0 0 1-32.3 62.9 136.46 136.46 0 0 1-53.6 37.9.75.75 0 0 1-.5.1" class="cls-1" style="fill:#fff;stroke-width:.86837882"/><path id="path178" d="m685.6 627.4-.6 117.7a150.7 150.7 0 0 1-32 62.3 134.5 134.5 0 0 1-53 37.5 134.5 134.5 0 0 1-53-37.5 150.7 150.7 0 0 1-32-62.3l-.6-117.7zm0-2.7H514.4a2.71 2.71 0 0 0-2.7 2.8l.6 117.7a2 2 0 0 0 .1.7 153 153 0 0 0 32.6 63.4 137.36 137.36 0 0 0 54.1 38.3 2.6 2.6 0 0 0 2 0 137.36 137.36 0 0 0 54.1-38.3 153 153 0 0 0 32.6-63.4 1.5 1.5 0 0 0 .1-.7v-1.6l.6-116.2a2.87 2.87 0 0 0-2.9-2.7m0 5.5" style="stroke-width:.9100132"/><path id="path180" d="M677.9 694.1v45.3h-51.3v78.7l-25.5 15.5-24-15.6v-78.6h-55v-45.3h55v-55.4h49.5v55.4z" style="fill:#9f3329;stroke:#000;stroke-width:2.4934361px;stroke-miterlimit:10"/><path id="path182" d="M600 863.6a145.3 145.3 0 0 1 0-290.6c80.2 0 145.4 65 145.4 145.3A145.27 145.27 0 0 1 600 863.6z" style="fill:none;stroke:#fff;stroke-width:3.74925423px;stroke-miterlimit:10"/><path id="path184" d="M492 319.3a1 1 0 0 1-.7-.4 1 1 0 0 1 .1-.9l5-5.6a.52.52 0 0 1 .4-.2c.1 0 15.3-3.7 27.4-10.8a124 124 0 0 0 15.5-10.5l.1-.1c.3-.1 7.5-3.8 10.6-3.8a1.93 1.93 0 0 1 1.8.8 2.56 2.56 0 0 1 0 2.1c-2.4 5.6-16.1 14.6-27.9 20.6-13.1 6.7-32 8.9-32.2 8.9z" class="cls-1" style="fill:#fff;stroke-width:.86837882"/><path id="path186" d="M550.5 287.7c1.1 0 1.6.5 1 1.8-2.1 4.9-14.4 13.5-27.5 20.2s-32 8.9-32 8.9l5-5.7s15.3-3.6 27.6-10.8a119 119 0 0 0 15.6-10.6s7.4-3.8 10.3-3.8m0-1.5c-3.3 0-10.2 3.5-11 3.9-.1.1-.2.1-.3.2a134 134 0 0 1-15.4 10.4c-12 7-27.1 10.6-27.2 10.7a1.37 1.37 0 0 0-.8.5l-5 5.7a1.54 1.54 0 0 0 .1 2.1 1.8 1.8 0 0 0 1 .4h.2c.8-.1 19.3-2.3 32.5-9 12.2-6.3 25.7-15.1 28.2-20.9a2.8 2.8 0 0 0 0-2.8 2.45 2.45 0 0 0-2.3-1.2" style="stroke-width:.9100132"/><path id="path188" d="m497.5 308.5-2.1 5.7s15.1-2.1 28.2-8.9 25.4-15.3 27.5-20.2-11.3 2-11.3 2a129.6 129.6 0 0 1-15.6 10.6c-12.3 7.2-26.7 10.8-26.7 10.8z" class="cls-35" style="fill:#a54138;stroke:#000;stroke-width:1.3650198px;stroke-miterlimit:10"/><path id="path198" d="M470 261.5a47.4 47.4 0 0 1 2.1 10.6c.6 6.8 0 15.7-5.1 23.7a35.8 35.8 0 0 1-7.3 8.2c-8.2 6.7-17 7.7-30.3 9.1a171 171 0 0 1-24.8.6c-5.3-.2-9.6-.6-21.4-1-7.5-.3-10.9-.3-15.5.4a45.5 45.5 0 0 0-13.5 3.9c-2.4 1.2-14.7 7.2-18.2 19.9a28 28 0 0 0-.9 5.7 47.4 47.4 0 0 0 24.2-1.8c1.1-3.8 3.6-10.3 9.7-14.9 3.5-2.6 8.9-5.1 22.9-4.8 19.5.4 22.9 5.6 41.5 6.6 9.2.5 17.9.9 28-3.2 4.1-1.7 13.6-5.7 20.4-15.8 1.9-2.8 9.4-13.9 6.5-27.4-.6-2.8-2.5-11.7-10.4-16.7a20.1 20.1 0 0 0-7.9-3.1z" class="cls-36" style="fill:#efcf3e;stroke:#000;stroke-width:2.7300396px;stroke-miterlimit:10"/><path id="path202" d="M463.4 251.7c-1.5-1-17.8-11.7-36.6-4.5s-23.6 26-24.2 28.6a43.1 43.1 0 0 0 3.8 29.5l20.3-.8a63.3 63.3 0 0 1 1.2-15.1c1.5-7.6 3.9-19.8 14.1-28.6a40.3 40.3 0 0 1 21.4-9.1z" class="cls-37" style="fill:#a54138;stroke:#000;stroke-width:1.8200264px;stroke-miterlimit:10"/><path id="path204" d="M373.8 348c-6.7 4.9-13.8 10.1-18.7 12.6-12.9 6.4-18.5 7.6-20.9 7.9a42 42 0 0 1-11.2-.1l2.8 36.9c1.8-1.2 3.3-2.3 4.4-3.1 1.7-1.3 2.4-2 2.9-3.1a6 6 0 0 0 .6-2.7c-.1-3.8.3-20.4.3-20.4a51.3 51.3 0 0 0 0 9.6c.4 4.6.9 10.2 3.3 10.8 1.5.4 3.3-1.3 4.1-2.5 1.8-2.5 1.2-5.1.7-12.1-.1-2-.3-4.8-.4-8.3.1 14.4 2.1 16.6 3.4 16.9a4 4 0 0 0 3.4-1.4 4 4 0 0 0 .6-2.2c-.2-3.1-2.6-15.3-2.6-15.3.5 2 3.2 12.9 6.9 12.8 1.5 0 2.9-2 3.5-3.4 0 0 .8-2.1-1.8-9.7-.2-.6 3.3 7.5 6.4 7.3a3.38 3.38 0 0 0 2.6-2.3 3.7 3.7 0 0 0-.4-2.5c-1.5-3.1-4.1-7.7-4.1-7.7s4.7 8.8 8.4 8.2a3.74 3.74 0 0 0 2.3-1.4 3 3 0 0 0 0-2.3c-.1-.6-4.3-7.6-3.4-6.4.3.5 4.5 6.9 7.3 6.1a2.37 2.37 0 0 0 1.3-1.1c.4-1-.4-2.2-1.5-3.8-.8-1.2-2-3-3.5-5.3a36 36 0 0 0 6.4 5.9 4.2 4.2 0 0 0 2.8 1 4.39 4.39 0 0 0 3-2.3c-3.2-5-5.7-11.7-8.9-16.6" class="cls-38" style="fill:#efcf3e;stroke:#000;stroke-width:1.3650198px;stroke-linecap:round;stroke-linejoin:round"/><path id="path208" d="M364.3 349.8a1.25 1.25 0 0 0 .2-1.7 1.35 1.35 0 0 0-.9-.5c-.5 0-1-.1-1.6-.1-6.9-.5-12.1.8-17.7 2.3-5.9 1.5-9.8 2.6-14 5.8-.5.4-1 .8-1.4 1.1a1.15 1.15 0 0 0-.1 1.7 1 1 0 0 0 .7.4c.4.1.9.2 1.4.3 7 1.1 12.5-.4 18.3-2.1 4.5-1.3 9-2.6 13.9-6.2a10.6 10.6 0 0 1 1.2-1" class="cls-9" style="fill:#efcf3e;stroke-width:.86837882"/><path id="path210" d="M730.7 261.5a47.4 47.4 0 0 0-2.1 10.6c-.6 6.8 0 15.7 5.1 23.7a35.8 35.8 0 0 0 7.3 8.2c8.2 6.7 17.1 7.7 30.3 9.1a171 171 0 0 0 24.8.6c5.3-.2 9.6-.6 21.4-1 7.5-.3 10.9-.3 15.5.4a45.5 45.5 0 0 1 13.5 3.9c2.4 1.2 14.7 7.2 18.2 19.9a28 28 0 0 1 .9 5.7 47.4 47.4 0 0 1-24.2-1.8c-1.1-3.8-3.6-10.3-9.8-14.9-3.5-2.6-8.9-5.1-22.9-4.8-19.5.4-22.9 5.6-41.5 6.6-9.2.5-17.9.9-28-3.2-4.1-1.7-13.6-5.7-20.4-15.8-1.9-2.8-9.4-13.9-6.5-27.4.6-2.8 2.5-11.7 10.5-16.7a19.5 19.5 0 0 1 7.9-3.1z" class="cls-36" style="fill:#efcf3e;stroke:#000;stroke-width:2.7300396px;stroke-miterlimit:10"/><path id="path212" d="M721.4 286a78 78 0 0 1 3.4-8.4c1.8-3.7 3-5.5 4-8.9a23.1 23.1 0 0 0 1-6.4c-.7.1-7.6 1.1-10.8 7.1a14.1 14.1 0 0 0-1 10.1 15 15 0 0 0 3.4 6.5" style="stroke-width:.9100132"/><path id="path214" d="M886.5 355a39.5 39.5 0 0 1-1 9.7c-1.1 4.5-4.3 6.2-4.5 8.1-.5 4-1.9 28.8-2.4 38.1v.4c0 .6-.1 1.2-.1 1.6-.1 1-.1 1.5-.1 1.5l-3.8-3.1-.4-.4-32.5-26.9-27.7-19a3.8 3.8 0 0 1-1-1c-.9-1.3-1.7-3.9 1-8.7a36.3 36.3 0 0 0 3.6-9c1.2-3.7 1.7-5.5 1.2-6.9-1.7-4.5-11.4-5.5-18.3-3.8a21.2 21.2 0 0 0-10.2 6 18 18 0 0 0-4.2 7.5c0 .1-.1.2-.1.3l-30.8-14.2h.2c2.9-.2 38.1-2.6 41.3-3.6 1.2-.3 23.9-4.8 30.4 1.6 7 7-6.7 27-9.2 31.3-.1.2 57 40.7 57 40.7.3-5.9 1.8-32.6 2-37 4.1-7.8 1.5-30.4-.1-34.3-6.1-14.7-9.7-16.3-23.5-25.8-12.4-8.5-50.9-3.1-50.9-3.1l1.4-8.7c0-.2 7.1-29.9-4.6-43.8a37.2 37.2 0 0 0-9-7.8c-10.8-7-21.5-7.3-26.6-7.4-2.7 0-15 0-22.5 5.7-1.5 1.2-4.8 3.7-4.7 7.1a5.47 5.47 0 0 0 .9 2.8s-18.3-2.1-23.9 3.6c-6.8 6.8-12.6 17.8-13.2 26.4-.1 1-.4 12.1 2.4 20.6a46.5 46.5 0 0 0 10.4 16.8c-10.2-3-21.5-5.8-33.8-8.2-12-2.3-24-4-36.2-5.1 2.3 0 12.3-.3 17.7-1.7 3.1-.8 8.9-3.1 20.8-21.3l1.4-2.1c11.8-18.7 13-26.7 19.2-33.2a34 34 0 0 1 3.5-3.1c8.2-6.2 17.6-7.5 24.1-7.7 0 0 7.8-6.9 13.3-8.7s33.1-15.4 60.4 16.9c14.3 17 9.8 45 9.8 45s28.4 1.8 43.6 11 21.6 15.1 26.9 33a82.4 82.4 0 0 1 2.8 19.9" style="stroke-width:.9100132"/><path id="path216" d="M704.1 309a73 73 0 0 1-13.2-4.9c-2.9-1.6 2.2-4 2.2-4l8.5 3.4z" class="cls-40" style="fill:#fff;stroke:#000;stroke-width:.9100132;stroke-miterlimit:10"/><path id="path220" d="M708.6 318.8c-.2 0-19.1-2.2-32.2-9-11.7-6-25.4-15-27.9-20.5a2 2 0 0 1 0-2.1 2.3 2.3 0 0 1 1.7-.8c3.1 0 10.3 3.7 10.6 3.8l.1.1a124 124 0 0 0 15.5 10.5c12.1 7 27.3 10.7 27.4 10.8a.52.52 0 0 1 .4.2l5 5.7a.62.62 0 0 1 .1.8.84.84 0 0 1-.7.4z" class="cls-1" style="fill:#fff;stroke-width:.9100132"/><path id="path222" d="M650.2 287.2c3 0 10.3 3.7 10.3 3.7a129.6 129.6 0 0 0 15.6 10.6c12.3 7.2 27.6 10.8 27.6 10.8l5 5.7s-18.8-2.1-32-8.9-25.4-15.3-27.5-20.2c-.5-1.2 0-1.7 1-1.7m0-1.5a2.64 2.64 0 0 0-2.4 1.1 2.8 2.8 0 0 0 0 2.8c2.5 5.8 16 14.7 28.2 20.9 13.2 6.8 31.7 8.9 32.5 9h.2a1.34 1.34 0 0 0 1.3-.8 1.51 1.51 0 0 0-.2-1.7l-5-5.6a2.2 2.2 0 0 0-.8-.5c-.2 0-15.2-3.7-27.2-10.7a134 134 0 0 1-15.4-10.4c-.1-.1-.2-.1-.3-.2-.7-.4-7.7-3.9-10.9-3.9" style="stroke-width:.9100132"/><path id="path224" d="m703.2 308 2.1 5.7s-15.1-2.1-28.2-8.9-25.4-15.3-27.5-20.2 11.3 2 11.3 2a129.6 129.6 0 0 0 15.6 10.6 118.4 118.4 0 0 0 26.7 10.8z" class="cls-35" style="fill:#a54138;stroke:#000;stroke-width:1.3650198px;stroke-miterlimit:10"/><path id="path226" d="M737.2 251.7c1.4-1 17.7-11.7 36.6-4.5s23.6 26 24.2 28.6a43.1 43.1 0 0 1-3.8 29.5l-20.3-.8a63.3 63.3 0 0 0-1.2-15.1c-1.5-7.6-3.9-19.8-14.1-28.6a41.1 41.1 0 0 0-21.4-9.1z" class="cls-37" style="fill:#a54138;stroke:#000;stroke-width:1.8200264px;stroke-miterlimit:10"/><path id="path228" d="M742.2 263.1a14.9 14.9 0 0 0-6.7-2.6 14.52 14.52 0 0 0-9.7 2.5" class="cls-39" style="fill:none;stroke:#000;stroke-width:2.7300396px;stroke-miterlimit:10"/><path id="path230" d="M826.1 348.1s14.5 10 19.5 12.4c12.9 6.4 18.5 7.6 20.9 7.9a42 42 0 0 0 11.2-.1c-.9 12.3-1.9 24.6-2.8 36.9-1.8-1.2-3.3-2.3-4.4-3.1a8.6 8.6 0 0 1-2.9-3.1 6 6 0 0 1-.6-2.7c.2-3.8-.3-20.4-.3-20.4a51.3 51.3 0 0 1 0 9.6c-.4 4.6-.9 10.2-3.3 10.8-1.5.4-3.3-1.3-4.1-2.5-1.8-2.5-1.2-5.1-.7-12.1.1-2 .3-4.8.4-8.3-.1 14.4-2.1 16.6-3.4 16.9a4 4 0 0 1-3.4-1.4 4 4 0 0 1-.6-2.2c.2-3.1 2.6-15.3 2.6-15.3-.5 2-3.2 12.9-6.9 12.8-1.5 0-2.9-2-3.5-3.4 0 0-.8-2.1 1.8-9.7.2-.6-3.3 7.5-6.4 7.3a3.38 3.38 0 0 1-2.6-2.3 3.7 3.7 0 0 1 .4-2.5c1.5-3.1 4.1-7.7 4.1-7.7s-4.7 8.8-8.4 8.2a3.28 3.28 0 0 1-2.2-1.4 3 3 0 0 1 0-2.3c.1-.6 4.3-7.6 3.4-6.4-.3.5-4.5 6.9-7.3 6.1a2.37 2.37 0 0 1-1.3-1.1c-.4-1 .4-2.2 1.5-3.8.8-1.2 2-3 3.5-5.3a36 36 0 0 1-6.4 5.9 4.2 4.2 0 0 1-2.8 1 4.39 4.39 0 0 1-3-2.3c3.1-4.9 8-16.4 8-16.4" class="cls-38" style="fill:#efcf3e;stroke:#000;stroke-width:1.3650198px;stroke-linecap:round;stroke-linejoin:round"/><path id="path232" d="M836.5 349.2a1.25 1.25 0 0 1-.2-1.7 1 1 0 0 1 .9-.4l1.6-.1c7-.3 12.1 1.2 17.6 2.9 5.8 1.7 9.7 2.9 13.8 6.2a17 17 0 0 1 1.4 1.2 1.37 1.37 0 0 1 .1 1.8 1.6 1.6 0 0 1-.7.4c-.4.1-.9.1-1.4.2-7 .9-12.5-.8-18.3-2.7-4.4-1.5-8.9-2.9-13.7-6.7a5.7 5.7 0 0 0-1.1-1.1" class="cls-9" style="fill:#efcf3e;stroke-width:.9100132"/><path id="path6" d="M712.4 221.7a9.3 9.3 0 0 1-1.7 4.9 8.5 8.5 0 0 1-4.3 2.9H494.5a8.5 8.5 0 0 1-4.3-2.9 10 10 0 0 1-1.7-4.9c-1.2-15.4 29.2-52.1 29.2-52.1 16.9-20.4 22.9-25.9 28.2-30.2 5.5-4.5 12-9.7 21.8-14.3a88.3 88.3 0 0 1 32.7-8 88.3 88.3 0 0 1 32.7 8c9.8 4.5 16.3 9.7 21.8 14.2 5.3 4.3 11.3 9.8 28.2 30.2 0 .1 30.4 36.8 29.3 52.2" class="cls-1" style="fill:#fff;stroke-width:.9100132"/><path id="polygon190" d="m585.9 100.6-10.8-31.7 25.6-.3v34.1z" style="stroke-width:.9100132"/><path id="polygon192" d="M570.6 70.5 600 96.4l-29.4 15.1z" style="stroke-width:.9100132"/><path id="polygon194" d="m629.6 70.1-29.3 25.8 29.3 15.1z" style="stroke-width:.9100132"/><path id="polygon196" d="m615.5 100.6 10.6-32h-25.4v34.1z" style="stroke-width:.9100132"/><path id="path200" d="M479.2 286a78 78 0 0 0-3.4-8.4c-1.8-3.7-3-5.5-4-8.9a27.6 27.6 0 0 1-1-6.4c.7.1 7.6 1.1 10.8 7.1a14.1 14.1 0 0 1 1 10.1 15 15 0 0 1-3.4 6.5" style="stroke-width:.9100132"/><path id="path206" d="M458.4 263.1a14.9 14.9 0 0 1 6.7-2.6 14.52 14.52 0 0 1 9.7 2.5" class="cls-39" style="fill:none;stroke:#000;stroke-width:2.7300396px;stroke-miterlimit:10"/><path id="path218" d="m500.1 302.4 8.5-3.4s5.1 2.5 2.2 4a70.4 70.4 0 0 1-13.2 4.9z" class="cls-40" style="fill:#fff;stroke:#000;stroke-width:.9100132;stroke-miterlimit:10"/><path id="path234" d="M567.7 125.1c-9.8 4.5-16.3 9.8-21.8 14.3-5.3 4.3-11.3 9.8-28.2 30.2 0 0-30.4 36.7-29.2 52.1a9.3 9.3 0 0 0 1.7 4.9 8.5 8.5 0 0 0 4.3 2.9h211.9a8.5 8.5 0 0 0 4.3-2.9 10 10 0 0 0 1.7-4.9c1.2-15.4-29.2-52.1-29.2-52.1-16.9-20.4-22.9-25.9-28.2-30.2-5.5-4.5-12-9.7-21.8-14.3a88.3 88.3 0 0 0-32.7-8 86.4 86.4 0 0 0-32.8 8z" style="fill:none;stroke:#000;stroke-width:5.46007919px;stroke-miterlimit:10"/><path id="path236" d="M701.9 248.8c-.9 2.5-1.8 4.8-2.7 7l-.3.7a96.7 96.7 0 0 1-12.6 21.8c-1.6 2.1-3.3 4-4.9 5.9a104 104 0 0 1-13.4 12.3c-17.7-6.1-46.9-15-66.5-15h-3c-19.4 0-48.1 8.7-65.9 14.8a103.4 103.4 0 0 1-13.7-12.8c-1.5-1.6-2.9-3.4-4.4-5.2a96.7 96.7 0 0 1-12.6-21.8l-.5-1.2c-.8-1.9-1.6-4-2.4-6.2-2.9-8.2-5-18.2-1.1-27.7a.3.3 0 0 1 .1-.2c8.2-19.6 19.4-31.8 32.3-45.6 9.6-10.3 19.6-20.9 36-31.8 1.8-1.2 3.6-2.3 5.4-3.4a163 163 0 0 1 28.8-14 179.4 179.4 0 0 1 27.9 13.5c2.1 1.2 4.1 2.6 6.3 4 16.4 10.9 26.4 21.5 36 31.8 12.9 13.7 24.2 26 32.3 45.5a.3.3 0 0 1 .1.2c3.7 9.4 1.7 19.2-1.2 27.4z" class="cls-3" style="fill:#efcf3e;stroke:#000;stroke-width:3.6400528px;stroke-miterlimit:10"/><circle id="circle238" cx="652" cy="205.60001" r="14" class="cls-42" style="fill:#264355;stroke:#000;stroke-width:1.3650198px;stroke-miterlimit:10"/><circle id="circle240" cx="544.20001" cy="205.60001" r="14" class="cls-42" style="fill:#264355;stroke:#000;stroke-width:1.3650198px;stroke-miterlimit:10"/><path id="path242" d="M683.4 305.7a7.54 7.54 0 0 1-3.3-.7c-1.1-.4-6.7-2.8-14.8-5.8-15.6-5.8-44.8-15.6-63.9-15.6h-2.9c-19 0-47.8 9.6-63.3 15.3-8.4 3.1-14.3 5.6-15.4 6a7.8 7.8 0 0 1-3.3.7 8.65 8.65 0 0 1-5.7-2.2 9.88 9.88 0 0 1-3.1-9c.6-3.9 1.3-11.6.2-15.6-.7-2.6-4.2-5.1-5.7-5.9a9.42 9.42 0 0 1-5.1-7.6 10 10 0 0 1 3.5-8.6c1.1-.9 2.2-1.8 3.4-2.6a171 171 0 0 1 31.4-19.1 162.9 162.9 0 0 1 36.1-12v-95.1h57.1v95.3a166.4 166.4 0 0 1 36.1 12 170.3 170.3 0 0 1 32.1 19.6l2.7 2.1a10 10 0 0 1 3.5 8.6 9.57 9.57 0 0 1-5.1 7.6c-1.6.8-5 3.4-5.6 5.8-1 3.8-.5 11.4.2 15.6a9.88 9.88 0 0 1-3.1 9 9.1 9.1 0 0 1-6 2.2" class="cls-1" style="fill:#fff;stroke-width:.9100132"/><path id="path244" d="M627.3 129.1v95a163 163 0 0 1 36.7 12.1 173.6 173.6 0 0 1 31.9 19.5l2.7 2.1a8.51 8.51 0 0 1 3 7.6 8.07 8.07 0 0 1-4.5 6.7c-1.7.9-5.5 3.6-6.3 6.6-1.1 4.2-.5 12.1.2 16.1a8.7 8.7 0 0 1-2.7 7.9 7.33 7.33 0 0 1-4.9 1.9 7.5 7.5 0 0 1-2.9-.6c-.2-.1-6-2.6-14.9-5.9-17.1-6.3-45.3-15.6-64.3-15.6h-2.9c-18.7 0-46.5 9.1-63.7 15.4-9.1 3.4-15.3 6-15.5 6.1a7.42 7.42 0 0 1-7.8-1.3 8.7 8.7 0 0 1-2.7-7.9c.7-4 1.3-11.9.2-16.1-.8-3-4.6-5.7-6.3-6.6a8.5 8.5 0 0 1-4.5-6.7 8.85 8.85 0 0 1 3.1-7.6c1.1-.9 2.2-1.8 3.3-2.6a171 171 0 0 1 31.2-19 158 158 0 0 1 36.7-12.1v-95zm2.4-2.3h-59.4v95.5a164 164 0 0 0-35.4 11.9 175.3 175.3 0 0 0-31.6 19.2c-1.1.8-2.2 1.7-3.4 2.6a10.9 10.9 0 0 0-3.9 9.6 10.33 10.33 0 0 0 5.8 8.5c1.8.9 4.6 3.2 5.1 5.1 1 3.6.5 11-.2 15.1a11.33 11.33 0 0 0 3.5 10.1 9.72 9.72 0 0 0 6.4 2.5 10 10 0 0 0 3.8-.8c1.1-.5 7-2.9 15.4-6 15.4-5.7 44.1-15.3 62.9-15.3h2.9c19 0 47.9 9.7 63.5 15.5 8.1 3 13.7 5.4 14.7 5.8a10 10 0 0 0 3.8.8 9.34 9.34 0 0 0 6.4-2.5 10.9 10.9 0 0 0 3.5-10.1c-.7-4.1-1.2-11.4-.2-15.1.5-1.9 3.5-4.3 5.1-5.1a10.72 10.72 0 0 0 5.7-8.5 10.9 10.9 0 0 0-3.9-9.6 34 34 0 0 0-2.7-2.1 169.6 169.6 0 0 0-32.3-19.8 164 164 0 0 0-35.4-11.9z" style="stroke-width:.9100132"/><path id="path246" d="M518 294.5c0-.1 1.9-11.8 0-19.1-1.8-7-9.5-10.9-9.6-11l-1.5-.8 1.3-1.1a159.7 159.7 0 0 1 32.2-20.5 148.3 148.3 0 0 1 39.4-12.5V120.8h40.3v108.6a147.2 147.2 0 0 1 39.4 12.5 156.3 156.3 0 0 1 32.1 20.5l1.4 1.1-1.6.8c-.1 0-7.8 4-9.6 11-1.9 7.3 0 19 0 19.1l.3 2.1-1.9-.8c-.5-.2-49.9-21.7-78.9-21.7h-2.8c-29 0-78.5 21.5-79 21.7l-1.9.8z" style="fill:#a54138;stroke-width:.9100132"/><path id="path248" d="M619 121.9v108.4a152 152 0 0 1 40.1 12.5 157.1 157.1 0 0 1 31.9 20.4s-8.2 4.1-10.1 11.7 0 19.6 0 19.6-49.8-21.8-79.4-21.8h-2.8c-29.6 0-79.4 21.8-79.4 21.8s2-12 0-19.6-10.1-11.7-10.1-11.7a157.1 157.1 0 0 1 31.9-20.4 144.9 144.9 0 0 1 40.1-12.5V121.9zm2.2-2.2h-42.5v108.8a151.4 151.4 0 0 0-38.8 12.4 159.2 159.2 0 0 0-32.4 20.7l-2.7 2.2 3.1 1.6c.1 0 7.3 3.8 9 10.3 1.8 7.1 0 18.6 0 18.7l-.7 4.1 3.8-1.7c.5-.2 49.7-21.6 78.5-21.6h2.9c28.8 0 78 21.4 78.5 21.6l3.8 1.7-.7-4.1c0-.1-1.9-11.6 0-18.7 1.7-6.5 8.9-10.2 9-10.3l3.1-1.6-2.7-2.2a159.2 159.2 0 0 0-32.4-20.7 146.5 146.5 0 0 0-38.8-12.4z" style="stroke-width:.9100132"/><path id="path250" d="m626.4 106.9-7.1-.7s4.9 5 5.7 6.6l-5.5 4.3a14.55 14.55 0 0 1 .6 8c-1.1 5.2-8.8 13.7-19.6 13.9h-1c-8.6-.2-17.9-5.8-19.6-13.9a15.55 15.55 0 0 1 .6-8l-5.6-4.3c.8-1.6 5.7-6.6 5.7-6.6l-7.1.7V76.2l5.7 2.6-1.4-6.9h44.3l-.9 6.7 5.2-2.4z" style="fill:#e3c230;stroke:#000;stroke-width:1.8200264px;stroke-miterlimit:10"/><circle id="circle252" cx="600" cy="249.8" r="14" class="cls-42" style="fill:#264355;stroke:#000;stroke-width:1.3650198px;stroke-miterlimit:10"/><circle id="circle254" cx="600" cy="249.8" r="6.0999999" class="cls-42" style="fill:#264355;stroke:#000;stroke-width:1.3650198px;stroke-miterlimit:10"/><circle id="circle256" cx="633" cy="256.60001" r="14" class="cls-42" style="fill:#264355;stroke:#000;stroke-width:1.3650198px;stroke-miterlimit:10"/><circle id="circle258" cx="633" cy="256.60001" r="6.0999999" class="cls-42" style="fill:#264355;stroke:#000;stroke-width:1.3650198px;stroke-miterlimit:10"/><circle id="circle260" cx="666.09998" cy="267.89999" r="14" class="cls-42" style="fill:#264355;stroke:#000;stroke-width:1.3650198px;stroke-miterlimit:10"/><circle id="circle262" cx="666.09998" cy="267.89999" r="6.0999999" class="cls-42" style="fill:#264355;stroke:#000;stroke-width:1.3650198px;stroke-miterlimit:10"/><circle id="circle264" cx="566.90002" cy="256.60001" r="14" class="cls-42" style="fill:#264355;stroke:#000;stroke-width:1.3650198px;stroke-miterlimit:10"/><circle id="circle266" cx="566.90002" cy="256.60001" r="6.0999999" class="cls-42" style="fill:#264355;stroke:#000;stroke-width:1.3650198px;stroke-miterlimit:10"/><circle id="circle268" cx="533.79999" cy="267.39999" r="14" class="cls-42" style="fill:#264355;stroke:#000;stroke-width:1.3650198px;stroke-miterlimit:10"/><circle id="circle270" cx="533.79999" cy="267.39999" r="6.0999999" class="cls-42" style="fill:#264355;stroke:#000;stroke-width:1.3650198px;stroke-miterlimit:10"/><circle id="circle272" cx="600" cy="189.7" r="14" class="cls-42" style="fill:#264355;stroke:#000;stroke-width:1.3650198px;stroke-miterlimit:10"/><circle id="circle274" cx="600" cy="189.7" r="6.0999999" class="cls-42" style="fill:#264355;stroke:#000;stroke-width:1.3650198px;stroke-miterlimit:10"/><circle id="circle276" cx="600" cy="159.60001" r="14" class="cls-42" style="fill:#264355;stroke:#000;stroke-width:1.3650198px;stroke-miterlimit:10"/><circle id="circle278" cx="600" cy="159.60001" r="6.0999999" class="cls-42" style="fill:#264355;stroke:#000;stroke-width:1.3650198px;stroke-miterlimit:10"/><circle id="circle280" cx="600" cy="219.7" r="14" class="cls-42" style="fill:#264355;stroke:#000;stroke-width:1.3650198px;stroke-miterlimit:10"/><circle id="circle282" cx="600" cy="219.7" r="6.0999999" class="cls-42" style="fill:#264355;stroke:#000;stroke-width:1.3650198px;stroke-miterlimit:10"/><circle id="circle284" cx="600" cy="96.099998" r="14" class="cls-42" style="fill:#264355;stroke:#000;stroke-width:1.3650198px;stroke-miterlimit:10"/><circle id="circle286" cx="600" cy="96.099998" r="6.0999999" class="cls-42" style="fill:#264355;stroke:#000;stroke-width:1.3650198px;stroke-miterlimit:10"/><circle id="circle288" cx="600" cy="126.8" r="6.0999999" class="cls-42" style="fill:#264355;stroke:#000;stroke-width:1.3650198px;stroke-miterlimit:10"/><path id="path290" d="M563.9 143c2-1.3 4.1-2.7 6.3-4 2.9-1.8 8.5-5 8.5-5v-10.3a49.6 49.6 0 0 0-11 4.4c-2.9 1.5-7.9 4.8-7.9 4.8z" class="cls-1" style="fill:#fff;stroke-width:.9100132"/><path id="path292" d="M636.8 142.6c-2.1-1.3-4.3-2.5-6.6-3.8-3-1.8-9-5.1-9-5.1v-10.3s2.7 1 4.4 1.7c.6.3 3 1.2 6 2.7.9.5 2.5 1.2 4.4 2.2 2.1 1.1 3.9 2.1 5.3 3z" class="cls-1" style="fill:#fff;stroke-width:.9100132"/></g></svg>